<svg width="25" height="25" viewBox="0 0 25 25" xmlns="http://www.w3.org/2000/svg">
<path d="M11.3719 15.593H13.3719V17.593H11.3719V15.593ZM11.3719 7.59298H13.3719V13.593H11.3719V7.59298ZM12.3719 2.59298C6.8419 2.59298 2.3719 7.09298 2.3719 12.593C2.3719 15.2451 3.42547 17.7887 5.30083 19.664C6.22942 20.5926 7.33181 21.3292 8.54507 21.8318C9.75832 22.3343 11.0587 22.593 12.3719 22.593C15.0241 22.593 17.5676 21.5394 19.443 19.664C21.3183 17.7887 22.3719 15.2451 22.3719 12.593C22.3719 11.2798 22.1132 9.9794 21.6107 8.76614C21.1082 7.55289 20.3716 6.45049 19.443 5.52191C18.5144 4.59332 17.412 3.85673 16.1987 3.35418C14.9855 2.85163 13.6851 2.59298 12.3719 2.59298V2.59298ZM12.3719 20.593C10.2502 20.593 8.21534 19.7501 6.71505 18.2498C5.21476 16.7495 4.3719 14.7147 4.3719 12.593C4.3719 10.4712 5.21476 8.43641 6.71505 6.93612C8.21534 5.43583 10.2502 4.59298 12.3719 4.59298C14.4936 4.59298 16.5285 5.43583 18.0288 6.93612C19.529 8.43641 20.3719 10.4712 20.3719 12.593C20.3719 14.7147 19.529 16.7495 18.0288 18.2498C16.5285 19.7501 14.4936 20.593 12.3719 20.593V20.593Z" />
</svg>
