<svg width="19" height="21" viewBox="0 0 19 21"  xmlns="http://www.w3.org/2000/svg">
<path d="M13.3316 3.14751V18.1475C13.3316 19.8175 14.4716 20.7575 15.7216 20.7575C16.8616 20.7575 18.1116 19.9675 18.1116 18.1475V3.25751C18.1116 1.71751 16.9716 0.757507 15.7216 0.757507C14.4716 0.757507 13.3316 1.81751 13.3316 3.14751ZM7.08157 10.7575V18.1475C7.08157 19.8275 8.24157 20.7575 9.47157 20.7575C10.6116 20.7575 11.8616 19.9675 11.8616 18.1475V10.8675C11.8616 9.32751 10.7216 8.36751 9.47157 8.36751C8.22157 8.36751 7.08157 9.42751 7.08157 10.7575ZM3.22157 15.9875C4.54157 15.9875 5.61157 17.0575 5.61157 18.3675C5.61157 19.6875 4.54157 20.7575 3.22157 20.7575C1.90157 20.7575 0.831573 19.6875 0.831573 18.3675C0.831573 17.0575 1.90157 15.9875 3.22157 15.9875Z" />
</svg>
