<svg width="70" height="70" viewBox="0 0 70 70" fill="none" xmlns="http://www.w3.org/2000/svg">
<rect width="70" height="70" rx="15" fill="#FCD460"/>
<path d="M38.5812 43.7325L37.0812 30.7325H39.3112L38.1812 26.1925L39.9212 25.7325L41.1712 30.7325H45.0812L43.5812 43.7325H38.5812ZM28.0812 33.7325H33.0812C33.8768 33.7325 34.6399 34.0486 35.2025 34.6112C35.7651 35.1738 36.0812 35.9368 36.0812 36.7325H25.0812C25.0812 35.9368 25.3972 35.1738 25.9599 34.6112C26.5225 34.0486 27.2855 33.7325 28.0812 33.7325V33.7325ZM36.0812 40.7325C36.0812 41.5281 35.7651 42.2912 35.2025 42.8538C34.6399 43.4164 33.8768 43.7325 33.0812 43.7325H28.0812C27.2855 43.7325 26.5225 43.4164 25.9599 42.8538C25.3972 42.2912 25.0812 41.5281 25.0812 40.7325H36.0812ZM26.0812 37.7325H31.0812L32.5812 39.2325L34.0812 37.7325H35.0812C35.3464 37.7325 35.6007 37.8378 35.7883 38.0254C35.9758 38.2129 36.0812 38.4673 36.0812 38.7325C36.0812 38.9977 35.9758 39.2521 35.7883 39.4396C35.6007 39.6271 35.3464 39.7325 35.0812 39.7325H26.0812C25.816 39.7325 25.5616 39.6271 25.3741 39.4396C25.1865 39.2521 25.0812 38.9977 25.0812 38.7325C25.0812 38.4673 25.1865 38.2129 25.3741 38.0254C25.5616 37.8378 25.816 37.7325 26.0812 37.7325V37.7325Z" fill="#503E9D"/>
</svg>
